<svg width="17" height="17" viewBox="0 0 17 17" fill="none" xmlns="http://www.w3.org/2000/svg">
<path d="M14.1667 2.83334H2.83335C2.05419 2.83334 1.41669 3.47084 1.41669 4.25001V12.75C1.41669 13.5292 2.05419 14.1667 2.83335 14.1667H14.1667C14.9459 14.1667 15.5834 13.5292 15.5834 12.75V4.25001C15.5834 3.47084 14.9459 2.83334 14.1667 2.83334ZM13.8834 5.84376L9.25085 8.74084C8.79044 9.03126 8.2096 9.03126 7.74919 8.74084L3.11669 5.84376C2.9396 5.73043 2.83335 5.53918 2.83335 5.33376C2.83335 4.85918 3.35044 4.57584 3.75419 4.82376L8.50002 7.79168L13.2459 4.82376C13.6496 4.57584 14.1667 4.85918 14.1667 5.33376C14.1667 5.53918 14.0604 5.73043 13.8834 5.84376Z" fill="white"/>
</svg>
